<svg version="1.2" xmlns="http://www.w3.org/2000/svg" xmlns:xlink="http://www.w3.org/1999/xlink" baseProfile="tiny-ps" viewBox="0 0 625 625" width="625" height="625">
	<style>
		.s0 { fill: #37b6ff } 
		.s1 { fill: #535557 } 
	</style>
	<path class="s0" d="m404 501c-16.5-1.3-32.7-1.6-48.5-4.3q-25.1-4.5-49.2-14.2c-25.2-10.3-46.8-25.2-64.4-45.7-8.4-9.7-15.2-20.8-19.9-33-9-23.3-23.7-42.2-43.7-57.2-13.5-10.1-26.8-20.6-39.5-31.6-10-8.5-19.8-17.4-28.2-27.4-13.8-16.3-25-34.5-29.5-55.8-4.5-21.4-3.1-42.5 6.1-62.4 5.5-11.9 14-22 24.4-30.4 11.6-9.2 24.8-15.4 38.8-19.4 10.5-3.1 21.7-4.7 32.6-5.4 12.2-0.7 24.6-0.3 36.8 1 14 1.5 27.9 4.4 41.7 7.1 3.4 0.7 5.7 3 5.6 7.4-0.9 21.3-1.4 42.7-2.1 64.1-0.1 2.2-0.3 4.7-1.4 6.6-0.8 1.6-2.9 3.3-4.5 3.3-1.6 0.1-3.9-1.6-4.7-3.2-1-2.2-1.2-5-1.4-7.6-0.8-13-6.7-23.6-14.9-33.5-7-8.3-15.5-14.3-25.7-17.5-18.7-5.9-37.6-6.1-55.3 2.4-15 7.1-24.7 19.2-27.3 36.6-2.9 19.6 5.2 34.6 17.8 48.1 12.8 13.8 27.9 25 42.9 36.3 13 9.7 25.2 20.4 38 30.4 13 10.1 24.2 21.8 33.2 35.5 8.7 13.2 15 27.4 20.4 42.2 4.4 11.9 9 23.9 15.1 34.9 9.3 16.8 22.2 30.8 38.2 41.7 15.5 10.4 32 18.5 50.5 22 7.6 1.5 15.3 3 23 3.9 6.7 0.8 13.6 1.6 20.3 0.9 9.1-0.9 18.3-2.5 27.1-5.2 5.7-1.7 7.5-8 7.6-13.5 0.3-24 0.4-48-0.1-72-0.1-9.1-1.9-18.2-3.4-27.1-0.9-5.4-6-7.1-10.3-9-7.1-3.1-14.6-3.1-22.2-3.1-3.2 0-6.9-0.3-7-5.4 0-3.4 1.5-4.5 4.4-4.5 15.5 0 31-0.1 46.5 0 14.1 0.2 28.2 0.9 42.2 0.9 12.5 0 24.9-0.5 37.3-0.9 3.4-0.2 6.3 0.8 6.3 4.3-0.1 3.4-2.6 5.7-6.4 5.7-6.4 0-12.6 0.8-18.6 3.6-5.5 2.5-7.3 7.3-8.4 12.1-1.1 5.1-1.1 10.5-1.2 15.8 0 31-0.3 62 0.2 93 0.1 6.7-2.9 10.3-8 12.3-15.8 6.4-32.2 10.7-49.1 13.4-20.4 3.2-41 3.8-62.1 3.8z"/>
	<path class="s1" d="m496.8 180c5.2 0.7 9.9 1.2 14.7 1.9 10 1.6 10.9 3 9.5 12.9-1 6.8-1.7 13.8-1.9 20.7-0.6 14.8-0.8 29.5-1.1 44.3-0.1 4.2-2.4 6.8-6.2 6.9-4 0.2-5.5-2.8-5.8-6.6-1.5-16.5-8.5-29.8-22.1-39.8-17.2-12.7-36.6-19.7-57.5-23.2-16.7-2.8-33.6-3.2-50.5-1.1-9.1 1.1-18.3 2.4-27.1 5.1-17.6 5.3-32.7 14.9-45.1 29-12.7 14.5-20.2 31.2-24.9 49.6-4.2 16.5-5.3 33.2-4.7 50.1 0.1 3.9 1 7.8 0.6 12.1-2.5-4.5-4.9-9-7.5-13.4-7.1-12.1-16.3-22.5-26.6-32-5.9-5.4-12.1-10.7-18.5-15.6-2.8-2.2-3.2-4.3-1.9-7.2 6.9-16.3 15.7-31.4 27.3-44.8 10.2-11.7 22-21.5 35.1-29.6 13.6-8.3 28.3-14.5 43.7-19.3 33-10.4 67-9.9 100.9-8.7 17.7 0.6 35.3 4.3 53 6.6 5.4 0.7 10.8 1.4 16.6 2.1z"/>
	<path class="s1" d="m189 499c-7.5 1-14.5 2.2-21.5 2.9-6.3 0.7-12.6 1.2-18.9 1-17.3-0.4-34.7-1.4-51.5-6.1-7.5-2.2-14.8-5.4-22-8.4-4.3-1.8-5.8-5.8-6-10.1-0.3-4.4-0.2-8.8-0.1-13.2 0.3-14.8 0.4-29.6 1.1-44.3 0.4-7.5 1.5-15.1 3-22.5 0.3-1.7 3.7-4 5.5-3.9 1.6 0.1 4.1 3.2 4.2 5.1 1.1 14.4 3.6 28.5 10.1 41.5 6.9 13.8 17.6 23.6 31.4 30.2 10.6 4.9 22 6.6 33.3 6.5 24.7-0.3 46-8.5 59-31.2 3.4-6 5.1-13.1 7.5-19.5 9.4 10.9 19.3 22.4 29.5 34.3-16.3 20.5-38.7 31.6-64.6 37.7z"/>
	<title>Steedoo Group</title>
</svg>